<svg viewBox="0 0 284 284" version="1.1" xmlns="http://www.w3.org/2000/svg" xmlns:xlink="http://www.w3.org/1999/xlink">
    <g id="Page-1" stroke="none" stroke-width="1" fill="none" fill-rule="evenodd">
        <g id="icon-link" fill="#D5002B" fill-rule="nonzero">
            <path d="M266.422,0 L168.797,0 C159.147,0 151.297,7.851 151.297,17.5 C151.297,27.149 159.147,35 168.797,35 L224.174,35 L131.799,127.374 C128.492,130.679 126.672,135.073 126.672,139.749 C126.672,144.425 128.491,148.818 131.797,152.12 C135.103,155.429 139.496,157.25 144.172,157.25 C148.846,157.25 153.241,155.43 156.548,152.123 L248.922,59.748 L248.922,115.125 C248.922,124.774 256.773,132.625 266.422,132.625 C276.071,132.625 283.922,124.774 283.922,115.125 L283.922,17.5 C283.922,7.851 276.071,0 266.422,0 Z" id="Shape"></path>
            <path d="M201.137,253.922 L30,253.922 L30,82.785 L158.711,82.785 L188.711,52.785 L15,52.785 C6.716,52.785 0,59.501 0,67.785 L0,268.922 C0,277.206 6.716,283.922 15,283.922 L216.137,283.922 C224.421,283.922 231.137,277.206 231.137,268.922 L231.137,95.211 L201.137,125.211 L201.137,253.922 Z" id="Shape"></path>
        </g>
    </g>
</svg>