<svg viewBox="0 0 69 28" xmlns="http://www.w3.org/2000/svg">
    <path fill-rule="evenodd" clip-rule="evenodd" d="M42 28H27V0H42V28ZM24.385 25.0381L17.622 4.1011C16.662 0.9021 15.04 0.0001 12.561 0.0001H0C0.987 0.4011 1.643 2.9411 1.643 2.9411L7.706 23.9701C8.404 26.6091 10.591 28.0001 13.072 28.0001H26.387C25.432 27.8271 24.385 25.0381 24.385 25.0381ZM44.6125 25.0381L51.3795 4.1011C52.3365 0.9021 53.9575 0.0001 56.4375 0.0001H69.0005C68.0115 0.4011 67.3595 2.9411 67.3595 2.9411L61.2935 23.9701C60.5945 26.6091 58.4075 28.0001 55.9295 28.0001H42.6135C43.5665 27.8271 44.6125 25.0381 44.6125 25.0381Z" fill="#D5002B"/>
</svg>